<svg width="80" height="80" viewBox="0 0 80 80" fill="none" xmlns="http://www.w3.org/2000/svg">
<path d="M34.6667 2.6665L40 5.33317V10.6665L34.6667 13.3332L42.6667 18.6665H45.3334V13.3332H53.3334V18.6665L56 21.3332V26.6665L53.3334 29.3332H48L37.3334 23.9998L32 26.6665H24L21.3334 37.3332L29.3334 45.3332L34.6667 47.9998V55.9998L37.3334 58.6665V63.9998L40 69.3332H45.3334L50.6667 61.3332L53.3334 55.9998V50.6665L61.3334 39.9998L58.6667 34.6665H66.6667V29.3332H77.3334M40 77.3332C19.3814 77.3332 2.66669 60.6185 2.66669 39.9998C2.66669 19.3812 19.3814 2.6665 40 2.6665C60.6187 2.6665 77.3334 19.3812 77.3334 39.9998C77.3334 60.6185 60.6187 77.3332 40 77.3332Z" stroke="#E8328C" stroke-linejoin="round"/>
</svg>
