<svg width="80" height="80" viewBox="0 0 80 80" fill="none" xmlns="http://www.w3.org/2000/svg">
<path d="M58.6667 56.0002H66.6667V48.0002M58.6667 24.0002H66.6667V32.0002M21.3334 24.0002H13.3334V32.0002M13.3334 48.0002V56.0002H21.3334M40 50.6668C34.109 50.6668 29.3334 45.8912 29.3334 40.0002C29.3334 34.1091 34.109 29.3335 40 29.3335C45.8911 29.3335 50.6667 34.1091 50.6667 40.0002C50.6667 45.8912 45.8911 50.6668 40 50.6668ZM8.00002 13.3335H72C74.9455 13.3335 77.3334 15.7213 77.3334 18.6668V61.3335C77.3334 64.279 74.9455 66.6668 72 66.6668H8.00002C5.0545 66.6668 2.66669 64.279 2.66669 61.3335V18.6668C2.66669 15.7213 5.0545 13.3335 8.00002 13.3335Z" stroke="#E8328C"/>
</svg>
