<svg width="24" height="24" viewBox="0 0 24 24" fill="none" xmlns="http://www.w3.org/2000/svg">
<path d="M3.03972 18.7207L3.48693 18.9443L3.62525 18.6677L3.43948 18.4204L3.03972 18.7207ZM5.27939 20.9604L5.57971 20.5606L5.33243 20.3748L5.05579 20.5132L5.27939 20.9604ZM0.800049 23.2001L0.352835 22.9764C0.256588 23.1689 0.294315 23.4014 0.446495 23.5536C0.598676 23.7058 0.831161 23.7435 1.02366 23.6473L0.800049 23.2001ZM7.20005 7.20005L6.9227 6.78402C6.7836 6.87676 6.70005 7.03287 6.70005 7.20005H7.20005ZM16.8001 16.8001V17.3001C16.9672 17.3001 17.1233 17.2165 17.2161 17.0774L16.8001 16.8001ZM10.0069 8.04092L10.5001 7.95872V7.95872L10.0069 8.04092ZM10.23 9.37959L9.73678 9.46179L10.23 9.37959ZM9.53926 10.9739L9.81661 11.3899L9.53926 10.9739ZM17.0274 16.459L17.4434 16.7363L17.0274 16.459ZM15.9592 13.9932L16.0414 13.5V13.5L15.9592 13.9932ZM14.6205 13.7701L14.5383 14.2633L14.6205 13.7701ZM13.0262 14.4608L12.6102 14.1835L13.0262 14.4608ZM0.300049 12C0.300049 14.6337 1.17082 17.0654 2.63996 19.021L3.43948 18.4204C2.09598 16.632 1.30005 14.4097 1.30005 12H0.300049ZM12 0.300049C5.53832 0.300049 0.300049 5.53832 0.300049 12H1.30005C1.30005 6.0906 6.0906 1.30005 12 1.30005V0.300049ZM23.7001 12C23.7001 5.53832 18.4618 0.300049 12 0.300049V1.30005C17.9095 1.30005 22.7001 6.0906 22.7001 12H23.7001ZM12 23.7001C18.4618 23.7001 23.7001 18.4618 23.7001 12H22.7001C22.7001 17.9095 17.9095 22.7001 12 22.7001V23.7001ZM4.97908 21.3601C6.93469 22.8293 9.3664 23.7001 12 23.7001V22.7001C9.5904 22.7001 7.36809 21.9041 5.57971 20.5606L4.97908 21.3601ZM1.02366 23.6473L5.503 21.4076L5.05579 20.5132L0.576442 22.7528L1.02366 23.6473ZM2.59251 18.4971L0.352835 22.9764L1.24726 23.4237L3.48693 18.9443L2.59251 18.4971ZM6.70005 7.20005V8.80005H7.70005V7.20005H6.70005ZM15.2001 17.3001H16.8001V16.3001H15.2001V17.3001ZM6.70005 8.80005C6.70005 13.4945 10.5056 17.3001 15.2001 17.3001V16.3001C11.0579 16.3001 7.70005 12.9422 7.70005 8.80005H6.70005ZM7.4774 7.61607L7.81846 7.3887L7.26376 6.55665L6.9227 6.78402L7.4774 7.61607ZM9.51366 8.12312L9.73678 9.46179L10.7232 9.29739L10.5001 7.95872L9.51366 8.12312ZM9.26191 10.5579L7.7227 11.584L8.2774 12.4161L9.81661 11.3899L9.26191 10.5579ZM9.73678 9.46179C9.80794 9.88876 9.62208 10.3178 9.26191 10.5579L9.81661 11.3899C10.5042 10.9315 10.859 10.1125 10.7232 9.29739L9.73678 9.46179ZM7.81846 7.3887C8.48262 6.94593 9.38244 7.33575 9.51366 8.12312L10.5001 7.95872C10.2495 6.45557 8.53171 5.71135 7.26376 6.55665L7.81846 7.3887ZM17.2161 17.0774L17.4434 16.7363L16.6114 16.1816L16.384 16.5227L17.2161 17.0774ZM16.0414 13.5L14.7027 13.2769L14.5383 14.2633L15.877 14.4864L16.0414 13.5ZM12.6102 14.1835L11.584 15.7227L12.4161 16.2774L13.4422 14.7382L12.6102 14.1835ZM14.7027 13.2769C13.8876 13.1411 13.0686 13.4959 12.6102 14.1835L13.4422 14.7382C13.6823 14.378 14.1113 14.1922 14.5383 14.2633L14.7027 13.2769ZM17.4434 16.7363C18.2887 15.4684 17.5445 13.7506 16.0414 13.5L15.877 14.4864C16.6643 14.6177 17.0542 15.5175 16.6114 16.1816L17.4434 16.7363Z" fill="white"/>
</svg>
