<svg width="15" height="16" viewBox="0 0 15 16" fill="none" xmlns="http://www.w3.org/2000/svg">
<g clip-path="url(#clip0_104_794)">
<path d="M7.66664 1C6.56421 1.001 5.50726 1.41381 4.72779 2.14779C3.94833 2.88177 3.51004 3.87695 3.50916 4.91488C3.51058 5.95258 3.94919 6.94737 4.72874 7.68096C5.5083 8.41455 6.56512 8.82702 7.66731 8.82786C8.76926 8.82669 9.82574 8.41407 10.605 7.68052C11.3843 6.94696 11.8227 5.95236 11.8241 4.91488C11.8232 3.87706 11.385 2.88198 10.6057 2.14801C9.82639 1.41405 8.76894 1.00117 7.66664 1ZM7.66731 3.29458C8.12381 3.29491 8.56084 3.46517 8.88364 3.76908C9.20643 4.07299 9.38794 4.48508 9.38829 4.91488C9.38758 5.3444 9.20604 5.75614 8.88344 6.05986C8.56085 6.36358 8.12352 6.53451 7.66731 6.53517C7.21098 6.53467 6.77348 6.36382 6.45074 6.06008C6.128 5.75635 5.94636 5.34451 5.94565 4.91488C5.94618 4.48519 6.12777 4.07326 6.45054 3.76948C6.77332 3.46571 7.21092 3.29491 7.66731 3.29458Z" stroke="white"/>
<path d="M4.18149 7.79559C3.92046 7.80288 3.66885 7.88898 3.46377 8.04119C3.2587 8.19341 3.11104 8.40366 3.04258 8.64092C2.97412 8.87818 2.9885 9.12988 3.0836 9.35886C3.17869 9.58784 3.34945 9.78197 3.57068 9.91259C4.31344 10.3522 5.12969 10.6705 5.98503 10.8542L3.6613 13.0426C3.43862 13.2588 3.3152 13.5488 3.3177 13.85C3.3202 14.1511 3.44841 14.4393 3.67465 14.6522C3.90089 14.8651 4.207 14.9857 4.52687 14.988C4.84675 14.9902 5.15473 14.8739 5.3843 14.6642L7.66708 12.5137L9.95256 14.6642C10.0656 14.7706 10.1997 14.8549 10.3474 14.9125C10.495 14.9701 10.6532 14.9997 10.8131 14.9997C10.9729 14.9997 11.1311 14.9701 11.2787 14.9125C11.4264 14.8549 11.5605 14.7706 11.6735 14.6642C12.1501 14.2161 12.1501 13.49 11.6735 13.0426L9.34981 10.8548C10.205 10.6713 11.021 10.3529 11.7635 9.91323C11.8989 9.83306 12.0163 9.72856 12.1088 9.6057C12.2013 9.48284 12.2673 9.34402 12.3028 9.19717C12.3384 9.05033 12.3429 8.89832 12.316 8.74984C12.2892 8.60135 12.2316 8.4593 12.1464 8.33179C12.0613 8.20428 11.9503 8.09381 11.8198 8.00668C11.6893 7.91956 11.5418 7.85748 11.3859 7.82401C11.2299 7.79053 11.0684 7.7863 10.9107 7.81157C10.753 7.83684 10.6021 7.8911 10.4667 7.97127C9.62741 8.46522 8.65754 8.72714 7.66776 8.72714C6.67797 8.72714 5.70811 8.46522 4.86881 7.97127C4.65536 7.84488 4.41641 7.78801 4.18149 7.79559Z" stroke="white"/>
</g>
<defs>
<clipPath id="clip0_104_794">
<rect width="15" height="15" fill="white" transform="translate(0 0.5)"/>
</clipPath>
</defs>
</svg>
