<svg width="15" height="16" viewBox="0 0 15 16" fill="none" xmlns="http://www.w3.org/2000/svg">
<path d="M14.4784 2L14.9773 1.96692C14.964 1.76635 14.8319 1.59324 14.6419 1.5275C14.452 1.46176 14.2411 1.51616 14.1067 1.6656L14.4784 2ZM13.9799 4.9589C13.9799 4.68276 13.7561 4.4589 13.4799 4.4589C13.2038 4.4589 12.9799 4.68276 12.9799 4.9589H13.9799ZM7.4892 5.0411H6.9892V5.0411L7.4892 5.0411ZM7.4892 6L7.9892 6V6L7.4892 6ZM0.5 13V12.5C0.279732 12.5 0.0854109 12.6441 0.0215057 12.8549C-0.0423996 13.0657 0.0391667 13.2935 0.222353 13.4158L0.5 13ZM1.49846 2L1.96671 1.82468C1.89694 1.63834 1.72333 1.5111 1.52464 1.50069C1.32594 1.49027 1.13998 1.59865 1.05111 1.77667L1.49846 2ZM5.49228 11L5.84611 11.3533C5.96847 11.2307 6.0187 11.0536 5.97889 10.885C5.93907 10.7165 5.81488 10.5806 5.65062 10.5257L5.49228 11ZM12.7161 2.97338L12.3452 3.30872L12.5253 3.50797L12.7909 3.46774L12.7161 2.97338ZM13.9795 2.03308C14.0311 2.81088 13.9833 3.28312 13.8573 3.63855C13.7349 3.98354 13.5213 4.26789 13.134 4.63899L13.8259 5.36101C14.2637 4.9415 14.6025 4.52878 14.7997 3.97288C14.9932 3.42744 15.0322 2.79498 14.9773 1.96692L13.9795 2.03308ZM13.9799 5.68749V4.9589H12.9799V5.68749H13.9799ZM6.9892 5.0411L6.9892 6L7.9892 6L7.9892 5.0411L6.9892 5.0411ZM6.9892 6L6.9892 6.5L7.9892 6.5L7.9892 6L6.9892 6ZM10.5256 1.5C8.57177 1.5 6.9892 3.08613 6.9892 5.0411H7.9892C7.9892 3.63696 9.12551 2.5 10.5256 2.5V1.5ZM12.9799 5.68749C12.9799 10.0029 9.48717 13.5 5.18026 13.5V14.5C10.0409 14.5 13.9799 10.5538 13.9799 5.68749H12.9799ZM1.0302 2.17532C1.57358 3.62656 3.61426 6.5 7.4892 6.5V5.5C4.17524 5.5 2.42179 3.04011 1.96671 1.82468L1.0302 2.17532ZM1.05111 1.77667C0.00437924 3.87336 -0.156896 5.90694 0.60386 7.63861C1.36288 9.36632 2.99598 10.6937 5.33395 11.4743L5.65062 10.5257C3.49554 9.80626 2.13326 8.63368 1.5194 7.23639C0.907282 5.84306 0.995621 4.12664 1.94581 2.22333L1.05111 1.77667ZM5.13845 10.6467C4.53634 11.2498 2.7261 12.5 0.5 12.5V13.5C3.06649 13.5 5.11696 12.0836 5.84611 11.3533L5.13845 10.6467ZM13.0869 2.63804C12.4557 1.93989 11.5417 1.5 10.5256 1.5V2.5C11.247 2.5 11.8953 2.8112 12.3452 3.30872L13.0869 2.63804ZM12.7909 3.46774C13.5515 3.35256 14.2935 2.95317 14.8501 2.3344L14.1067 1.6656C13.6988 2.11897 13.1639 2.39985 12.6412 2.47902L12.7909 3.46774ZM0.222353 13.4158C1.86304 14.5113 3.58337 14.5 5.18026 14.5V13.5C3.55033 13.5 2.13233 13.4887 0.777647 12.5842L0.222353 13.4158Z" fill="white"/>
</svg>
