<svg width="16" height="16" viewBox="0 0 16 16" fill="none" xmlns="http://www.w3.org/2000/svg">
<path d="M2.1498 12.2004L2.59701 12.424L2.73533 12.1474L2.54956 11.9001L2.1498 12.2004ZM3.54959 13.6002L3.84991 13.2004L3.60262 13.0147L3.32598 13.153L3.54959 13.6002ZM0.75 15L0.302786 14.7764C0.206539 14.9689 0.244266 15.2014 0.396447 15.3536C0.548627 15.5057 0.781113 15.5435 0.973607 15.4472L0.75 15ZM4.75 5L4.47265 4.58397C4.33355 4.67671 4.25 4.83282 4.25 5H4.75ZM10.75 11V11.5C10.9172 11.5 11.0733 11.4164 11.166 11.2774L10.75 11ZM6.50426 5.52554L6.99745 5.44334L6.50426 5.52554ZM6.6437 6.36221L6.15051 6.44441L6.6437 6.36221ZM6.21201 7.35866L6.48936 7.77469H6.48936L6.21201 7.35866ZM10.8921 10.7868L11.3081 11.0642L10.8921 10.7868ZM10.2245 9.24574L10.3067 8.75255L10.2245 9.24574ZM9.38779 9.1063L9.30559 9.59949V9.5995L9.38779 9.1063ZM8.39134 9.53799L7.97531 9.26064L8.39134 9.53799ZM0.25 8C0.25 9.68803 0.808266 11.2471 1.75003 12.5007L2.54956 11.9001C1.73342 10.8137 1.25 9.46403 1.25 8H0.25ZM7.75 0.5C3.60786 0.5 0.25 3.85786 0.25 8H1.25C1.25 4.41015 4.16015 1.5 7.75 1.5V0.5ZM15.25 8C15.25 3.85786 11.8921 0.5 7.75 0.5V1.5C11.3399 1.5 14.25 4.41015 14.25 8H15.25ZM7.75 15.5C11.8921 15.5 15.25 12.1421 15.25 8H14.25C14.25 11.5899 11.3399 14.5 7.75 14.5V15.5ZM3.24927 14C4.50289 14.9417 6.06197 15.5 7.75 15.5V14.5C6.28597 14.5 4.93629 14.0166 3.84991 13.2004L3.24927 14ZM0.973607 15.4472L3.7732 14.0474L3.32598 13.153L0.526393 14.5528L0.973607 15.4472ZM1.70258 11.9768L0.302786 14.7764L1.19721 15.2236L2.59701 12.424L1.70258 11.9768ZM4.25 5V6H5.25V5H4.25ZM9.75 11.5H10.75V10.5H9.75V11.5ZM4.25 6C4.25 9.03757 6.71243 11.5 9.75 11.5V10.5C7.26472 10.5 5.25 8.48528 5.25 6H4.25ZM5.02735 5.41603L5.24051 5.27392L4.68581 4.44187L4.47265 4.58397L5.02735 5.41603ZM6.01106 5.60774L6.15051 6.44441L7.1369 6.28001L6.99745 5.44334L6.01106 5.60774ZM5.93466 6.94264L4.97265 7.58397L5.52735 8.41603L6.48936 7.77469L5.93466 6.94264ZM6.15051 6.44441C6.18285 6.63849 6.09837 6.8335 5.93466 6.94264L6.48936 7.77469C6.98049 7.44727 7.23394 6.86225 7.1369 6.28001L6.15051 6.44441ZM5.24051 5.27392C5.54241 5.07266 5.95141 5.24985 6.01106 5.60774L6.99745 5.44334C6.81851 4.36967 5.59149 3.83808 4.68581 4.44187L5.24051 5.27392ZM11.166 11.2774L11.3081 11.0642L10.4761 10.5095L10.334 10.7226L11.166 11.2774ZM10.3067 8.75255L9.46999 8.6131L9.30559 9.5995L10.1423 9.73894L10.3067 8.75255ZM7.97531 9.26064L7.33397 10.2226L8.16603 10.7774L8.80736 9.81534L7.97531 9.26064ZM9.46999 8.6131C8.88775 8.51606 8.30273 8.76951 7.97531 9.26064L8.80736 9.81534C8.9165 9.65163 9.11151 9.56715 9.30559 9.59949L9.46999 8.6131ZM11.3081 11.0642C11.9119 10.1585 11.3803 8.93149 10.3067 8.75255L10.1423 9.73894C10.5002 9.79859 10.6773 10.2076 10.4761 10.5095L11.3081 11.0642Z" fill="white"/>
</svg>
