<svg width="58" height="71" viewBox="0 0 58 71" fill="none" xmlns="http://www.w3.org/2000/svg">
<path d="M35.9979 70.4596C26.1466 70.4596 17.7023 67.064 10.6657 60.2723C3.55478 53.5528 0 45.3523 0 35.6704C0 26.1336 3.55478 17.8967 10.6657 10.9603C17.6286 4.16909 26.0722 0.773438 35.9979 0.773438H57.9965C57.9965 6.33662 56.4779 10.5632 53.4411 13.4532C50.4045 16.4157 46.7754 17.8967 42.5536 17.8967H35.9979C30.961 17.8967 26.7392 19.667 23.3318 23.2076C19.925 26.6032 18.2213 30.7573 18.2213 35.6704C18.2213 40.6555 19.925 44.8459 23.3318 48.2425C26.8129 51.6381 31.0354 53.3357 35.9979 53.3357H42.5536C46.8491 53.3357 50.4782 54.8176 53.4411 57.78C56.4779 60.6702 57.9965 64.8959 57.9965 70.4596H35.9979Z" fill="url(#paint0_linear_104_2292)"/>
<defs>
<linearGradient id="paint0_linear_104_2292" x1="0" y1="31.8833" x2="57.9965" y2="31.8833" gradientUnits="userSpaceOnUse">
<stop stop-color="#E8328C"/>
<stop offset="1" stop-color="#6500AD"/>
</linearGradient>
</defs>
</svg>
