<svg width="127" height="153" viewBox="0 0 127 153" fill="none" xmlns="http://www.w3.org/2000/svg">
<path d="M23.6722 129.759L23.6684 129.756C8.2162 115.154 0.5 97.3512 0.5 76.3168C0.5 55.6014 8.21513 37.7153 23.6741 22.6358C38.8059 7.87708 57.1452 0.5 78.7243 0.5H126.332C126.242 12.3273 122.949 21.2553 116.527 27.3673L116.522 27.3717C109.974 33.7599 102.163 36.9471 93.0612 36.9471H78.7243C67.5788 36.9471 58.2159 40.87 50.6679 48.7113C43.1237 56.2326 39.3483 65.4444 39.3483 76.3168C39.3483 87.3463 43.1234 96.6393 50.6715 104.165L50.6755 104.169C58.384 111.688 67.7444 115.449 78.7243 115.449H93.0612C102.326 115.449 110.134 118.64 116.518 125.022L116.518 125.022L116.527 125.031C122.949 131.143 126.242 140.069 126.332 151.898H78.7243C57.3088 151.898 38.9666 144.521 23.6722 129.759Z" fill="#EBEBEB" stroke="white"/>
</svg>
