<svg width="78" height="89" viewBox="0 0 78 89" fill="none" xmlns="http://www.w3.org/2000/svg">
<path d="M77.5211 88.0939H36.8396C26.9135 88.0939 18.4318 84.6983 11.3944 77.9066C4.28529 71.1871 0.730713 62.9867 0.730713 53.3048V18.4078C6.57984 18.4078 11.0615 19.9612 14.1755 23.0681C17.433 26.2469 19.0618 29.9319 19.0618 34.1219V53.3048C19.0618 58.2899 20.7673 62.4802 24.1733 65.8769C27.6561 69.2725 31.8765 70.97 36.8396 70.97H59.1901V15.8313C59.1901 11.5688 60.783 7.8838 63.9636 4.77752C67.1494 1.67063 71.6668 0.117188 77.5211 0.117188V88.0939Z" fill="url(#paint0_linear_104_2371)"/>
<defs>
<linearGradient id="paint0_linear_104_2371" x1="0.730713" y1="39.3925" x2="77.5211" y2="39.3925" gradientUnits="userSpaceOnUse">
<stop stop-color="#E8328C"/>
<stop offset="1" stop-color="#6500AD"/>
</linearGradient>
</defs>
</svg>
