<svg width="168" height="193" viewBox="0 0 168 193" fill="none" xmlns="http://www.w3.org/2000/svg">
<path d="M167.434 1.10429V192.5H78.9671C57.3869 192.5 38.9632 185.123 23.6678 170.362L23.664 170.358C8.21577 155.756 0.5 137.954 0.5 116.919V41.1043C12.9579 41.1919 22.4488 44.5628 29.0495 51.1483L29.0535 51.1521C36.0901 58.0188 39.5884 65.9519 39.5884 74.968V116.919C39.5884 127.949 43.3676 137.242 50.9139 144.767L50.9179 144.771C58.63 152.29 67.9858 156.052 78.9671 156.052H127.846H128.346V155.552V34.968C128.346 25.7875 131.77 17.8557 138.634 11.152C145.391 4.56243 154.964 1.19179 167.434 1.10429Z" fill="#EBEBEB" stroke="white"/>
</svg>
