<svg width="73" height="71" viewBox="0 0 73 71" fill="none" xmlns="http://www.w3.org/2000/svg">
<path d="M72.2182 0.674805H36.1099C26.2575 0.674805 17.7768 4.0339 10.6657 10.7539C3.55455 17.6177 0 25.8181 0 35.3556V70.361C5.85169 70.361 10.3328 68.8078 13.4438 65.7005C16.7033 62.5215 18.332 58.8013 18.332 54.5387V35.3556C18.332 30.4425 20.0361 26.3236 23.4436 23.0006C26.8507 19.5318 31.0716 17.798 36.1099 17.798H53.8857V54.5387C53.8857 58.8013 55.4791 62.5215 58.6633 65.7005C61.9228 68.8078 66.4413 70.361 72.2182 70.361V0.674805Z" fill="url(#paint0_linear_104_2324)"/>
<defs>
<linearGradient id="paint0_linear_104_2324" x1="0" y1="31.7847" x2="72.2182" y2="31.7847" gradientUnits="userSpaceOnUse">
<stop stop-color="#E8328C"/>
<stop offset="1" stop-color="#6500AD"/>
</linearGradient>
</defs>
</svg>
