<svg width="158" height="153" viewBox="0 0 158 153" fill="none" xmlns="http://www.w3.org/2000/svg">
<path d="M29.0513 141.848L29.0471 141.852C22.453 148.438 12.9635 151.809 0.5 151.896V75.844C0.5 55.1281 8.21381 37.3235 23.6704 22.4037C39.1279 7.79724 57.5507 0.5 78.9693 0.5H157.435V151.896C145.135 151.807 135.558 148.44 128.641 141.848C121.768 134.984 118.343 126.975 118.343 117.796V37.4471V36.9471H117.843H78.9693C67.8241 36.9471 58.4644 40.7874 50.9164 48.4702C43.3669 55.8344 39.5906 64.9713 39.5906 75.844V117.796C39.5906 126.973 36.0904 134.983 29.0513 141.848Z" fill="#EBEBEB" stroke="white"/>
</svg>
