<svg width="127" height="71" viewBox="0 0 127 71" fill="none" xmlns="http://www.w3.org/2000/svg">
<path d="M72.6589 70.4596C66.8815 70.4596 62.3635 68.9065 59.104 65.7992C55.9198 62.6202 54.3264 58.8999 54.3264 54.6374V35.6704C54.3264 30.7573 52.586 26.6032 49.1042 23.2076C45.6971 19.667 41.5121 17.8967 36.5495 17.8967C31.5122 17.8967 27.2903 19.667 23.8843 23.2076C20.4762 26.6032 18.7727 30.7573 18.7727 35.6704V54.6374C18.7727 58.9716 17.1798 62.6929 13.9956 65.7992C10.8841 68.9065 6.36611 70.4596 0.440674 70.4596V35.6704C0.440674 26.1336 3.99573 17.8967 11.1064 10.9603C18.2918 4.16909 26.772 0.773438 36.5495 0.773438C41.6601 0.773438 46.5489 1.78469 51.2154 3.80782C55.8819 5.83099 59.9927 8.75758 63.5487 12.5863C66.9548 8.75758 71.0107 5.83099 75.7141 3.80782C80.418 1.78469 85.3626 0.773438 90.5474 0.773438C100.472 0.773438 108.953 4.16909 115.99 10.9603C123.026 17.8248 126.545 26.0611 126.545 35.6704V70.4596C120.768 70.4596 116.249 68.9065 112.99 65.7992C109.879 62.548 108.324 58.8272 108.324 54.6374V35.6704C108.324 30.8292 106.546 26.6751 102.99 23.2076C99.5833 19.667 95.4352 17.8967 90.5474 17.8967C85.4358 17.8967 81.1765 19.667 77.7695 23.2076C74.3624 26.6032 72.6589 30.7573 72.6589 35.6704V70.4596Z" fill="url(#paint0_linear_104_2338)"/>
<defs>
<linearGradient id="paint0_linear_104_2338" x1="0.440674" y1="31.8833" x2="126.545" y2="31.8833" gradientUnits="userSpaceOnUse">
<stop stop-color="#E8328C"/>
<stop offset="1" stop-color="#6500AD"/>
</linearGradient>
</defs>
</svg>
