<svg width="277" height="153" viewBox="0 0 277 153" fill="none" xmlns="http://www.w3.org/2000/svg">
<path d="M158.862 152.398C146.227 152.398 136.347 149.001 129.218 142.206C122.255 135.254 118.77 127.118 118.77 117.796V76.3168C118.77 65.5723 114.964 56.4876 107.349 49.0617C99.8986 41.3186 90.7462 37.4471 79.8936 37.4471C68.8774 37.4471 59.6444 41.3186 52.1957 49.0617C44.7426 56.4876 41.0172 65.5723 41.0172 76.3168V117.796C41.0172 127.275 37.5336 135.413 30.57 142.206C23.7654 149.001 13.885 152.398 0.926514 152.398V76.3168C0.926514 55.4605 8.70113 37.4471 24.2515 22.2779C39.9654 7.426 58.5109 0 79.8936 0C91.0699 0 101.761 2.21153 111.967 6.63593C122.172 11.0604 131.162 17.4607 138.939 25.8337C146.387 17.4607 155.257 11.0604 165.543 6.63593C175.83 2.21153 186.644 0 197.982 0C219.688 0 238.234 7.426 253.623 22.2779C269.011 37.2898 276.706 55.3019 276.706 76.3168V152.398C264.072 152.398 254.19 149.001 247.063 142.206C240.258 135.096 236.858 126.959 236.858 117.796V76.3168C236.858 65.7294 232.97 56.6447 225.194 49.0617C217.743 41.3186 208.671 37.4471 197.982 37.4471C186.804 37.4471 177.489 41.3186 170.038 49.0617C162.587 56.4876 158.862 65.5723 158.862 76.3168V152.398Z" fill="#EBEBEB"/>
</svg>
