<svg width="69" height="117" viewBox="0 0 69 117" fill="none" xmlns="http://www.w3.org/2000/svg">
<path d="M68.073 16.3953C68.073 12.0609 66.4802 8.3393 63.2944 5.23308C60.1855 2.1987 55.6629 0.681152 49.7421 0.681152V72.7431H18.4068V30.1132C18.4068 25.9233 16.778 22.2382 13.5205 19.0594C10.4064 15.9525 5.92481 14.3991 0.0756836 14.3991V100.272C0.0756836 104.534 1.66861 108.254 4.85439 111.433C8.11187 114.541 12.6294 116.094 18.4068 116.094V89.7586H49.7421V100.272C49.7421 102.438 50.1467 104.426 50.961 106.231C51.7754 108.038 52.9637 109.772 54.5156 111.433C57.7782 114.541 62.2956 116.094 68.073 116.094V16.3953Z" fill="url(#paint0_linear_104_2385)"/>
<defs>
<linearGradient id="paint0_linear_104_2385" x1="0.0756836" y1="52.2047" x2="68.0731" y2="52.2047" gradientUnits="userSpaceOnUse">
<stop stop-color="#E8328C"/>
<stop offset="1" stop-color="#6500AD"/>
</linearGradient>
</defs>
</svg>
