<svg width="150" height="253" viewBox="0 0 150 253" fill="none" xmlns="http://www.w3.org/2000/svg">
<path d="M138.36 10.915L138.361 10.9152C145.234 17.6169 148.66 25.6278 148.66 34.968V252.499C136.363 252.41 126.79 249.044 119.866 242.456C116.509 238.859 113.947 235.116 112.193 231.226L111.737 231.432L112.193 231.226C110.444 227.348 109.572 223.073 109.572 218.398V195.407V194.907H109.072H40.5441H40.0441V195.407V252.499C27.7432 252.41 18.1681 249.042 11.2551 242.45C4.37904 235.587 0.955505 227.578 0.955505 218.398V31.1043C13.4134 31.1919 22.9044 34.5628 29.505 41.1483L29.509 41.1521C36.5456 48.0188 40.0441 55.9519 40.0441 64.968V158.196V158.696H40.5441H109.072H109.572V158.196V1.10421C122.191 1.18876 131.771 4.48399 138.36 10.915Z" fill="#EBEBEB" stroke="white"/>
</svg>
