<svg width="96" height="74" viewBox="0 0 96 74" fill="none" xmlns="http://www.w3.org/2000/svg">
<path d="M79.4005 54.8169L70.0621 54.8169L70.0621 37.0396C70.0621 26.9659 66.6665 18.4483 59.8748 11.4857C53.1553 4.30134 44.9549 0.708891 35.273 0.708891C25.7361 0.708892 17.4992 4.30134 10.5629 11.4857C3.77163 18.6711 0.375975 27.1893 0.375975 37.0396C0.375975 46.8176 3.77163 55.2983 10.5629 62.4838C17.4992 69.5949 25.7361 73.1494 35.273 73.1494L95.1152 73.1494C95.1152 67.2977 93.5616 62.8167 90.4548 59.7057C87.2753 56.4461 83.5914 54.8169 79.4005 54.8169ZM35.273 54.7057C30.3599 54.7057 26.2058 53.0022 22.8102 49.5947C19.2695 46.1876 17.4992 42.0031 17.4992 37.0396C17.4992 32.077 19.2695 27.8925 22.8102 24.4854C26.2058 21.0041 30.3599 19.2632 35.273 19.2632C40.2581 19.2632 44.4484 20.9667 47.8451 24.3743C51.2407 27.8561 52.9382 32.077 52.9382 37.0396L52.9382 54.7057L35.273 54.7057Z" fill="url(#paint0_linear_104_2312)"/>
<defs>
<linearGradient id="paint0_linear_104_2312" x1="42.6703" y1="73.1494" x2="42.6703" y2="0.708891" gradientUnits="userSpaceOnUse">
<stop stop-color="#E8328C"/>
<stop offset="1" stop-color="#6500AD"/>
</linearGradient>
</defs>
</svg>
