<svg width="208" height="159" viewBox="0 0 208 159" fill="none" xmlns="http://www.w3.org/2000/svg">
<path d="M151.898 118.329L151.898 118.829L152.398 118.829L172.82 118.829C181.838 118.829 189.769 122.329 196.637 129.37L196.641 129.374C203.226 135.968 206.597 145.457 206.685 157.921L76.3168 157.921C55.6026 157.921 37.7174 150.207 22.6386 134.75C7.87511 119.128 0.499997 100.705 0.499997 79.4517C0.499996 58.0391 7.87614 39.5341 22.6393 23.9131C37.7189 8.2951 55.6039 0.49957 76.3168 0.499569C97.3494 0.499568 115.152 8.29673 129.754 23.9092L129.761 23.9167C144.519 39.0463 151.898 57.5468 151.898 79.4517L151.898 118.329ZM104.169 51.4047L104.165 51.4008C96.6393 43.8509 87.3463 40.0764 76.3168 40.0764C65.4417 40.0764 56.2294 43.9349 48.7093 51.6421C40.8709 59.1873 36.9471 68.4673 36.9471 79.4517C36.9471 90.4392 40.8715 99.7196 48.7112 107.265C56.2324 114.811 65.4443 118.586 76.3168 118.586L114.949 118.586L115.449 118.586L115.449 118.086L115.449 79.4517C115.449 68.4715 111.688 59.1146 104.169 51.4047Z" fill="#EBEBEB" stroke="white"/>
</svg>
